<?xml version="1.0" encoding="utf-8"?>
<svg version="1.1" xmlns:xlink="http://www.w3.org/1999/xlink" width="630px" height="434px" xmlns="http://www.w3.org/2000/svg">
  <g transform="matrix(1 0 0 1 -570 0 )">
    <path d="M 570 0  L 1200 0  L 1200 434  L 570 434  L 570 0  " fill-rule="nonzero" fill="#cccccc" stroke="none" />
    <path d="M 600 30  L 1170 30  L 1170 404  L 600 404  L 600 30  " fill-rule="nonzero" fill="#ffffff" stroke="none" />
    <path d="M 930.15 130.2  C 911.922 130.2  897.6 115.878  897.6 97.65  C 897.6 79.422  911.922 65.1  930.15 65.1  C 948.378 65.1  962.7 79.422  962.7 97.65  C 962.7 115.878  948.378 130.2  930.15 130.2  " fill-rule="nonzero" fill="#cccccc" stroke="none" />
    <path d="M 611 393  L 611 199.4  L 748 111.4  L 939.8 247.506666666667  L 1049.4 164.2  L 1159 247.506666666667  L 1159 393  L 611 393  " fill-rule="nonzero" fill="#169bd5" stroke="none" />
  </g>
</svg>