<?xml version="1.0" encoding="utf-8"?>
<svg version="1.1" xmlns:xlink="http://www.w3.org/1999/xlink" width="822px" height="434px" xmlns="http://www.w3.org/2000/svg">
  <g transform="matrix(1 0 0 1 -378 0 )">
    <path d="M 378 0  L 1200 0  L 1200 434  L 378 434  L 378 0  " fill-rule="nonzero" fill="#cccccc" stroke="none" />
    <path d="M 408 30  L 1170 30  L 1170 404  L 408 404  L 408 30  " fill-rule="nonzero" fill="#ffffff" stroke="none" />
    <path d="M 837.99 130.2  C 819.762 130.2  805.44 115.878  805.44 97.65  C 805.44 79.422  819.762 65.1  837.99 65.1  C 856.218 65.1  870.54 79.422  870.54 97.65  C 870.54 115.878  856.218 130.2  837.99 130.2  " fill-rule="nonzero" fill="#cccccc" stroke="none" />
    <path d="M 419 393  L 419 199.4  L 604 111.4  L 863 281.490510948905  L 1011 164.2  L 1159 281.490510948905  L 1159 393  L 419 393  " fill-rule="nonzero" fill="#169bd5" stroke="none" />
  </g>
</svg>