<?xml version="1.0" encoding="utf-8"?>
<svg version="1.1" xmlns:xlink="http://www.w3.org/1999/xlink" width="511px" height="442px" xmlns="http://www.w3.org/2000/svg">
  <g transform="matrix(1 0 0 1 -96 -671 )">
    <path d="M 96 671  L 607 671  L 607 1113  L 96 1113  L 96 671  " fill-rule="nonzero" fill="#cccccc" stroke="none" />
    <path d="M 127 702  L 576 702  L 576 1082  L 127 1082  L 127 702  " fill-rule="nonzero" fill="#ffffff" stroke="none" />
    <path d="M 394.87 803.6  C 376.306 803.6  361.72 789.014  361.72 770.45  C 361.72 751.886  376.306 737.3  394.87 737.3  C 413.434 737.3  428.02 751.886  428.02 770.45  C 428.02 789.014  413.434 803.6  394.87 803.6  " fill-rule="nonzero" fill="#cccccc" stroke="none" />
    <path d="M 138 1071  L 138 874.1  L 244.75 784.6  L 394.2 885.204305283757  L 479.6 838.3  L 565 885.204305283757  L 565 1071  L 138 1071  " fill-rule="nonzero" fill="#169bd5" stroke="none" />
  </g>
</svg>