<?xml version="1.0" encoding="utf-8"?>
<svg version="1.1" xmlns:xlink="http://www.w3.org/1999/xlink" width="511px" height="442px" xmlns="http://www.w3.org/2000/svg">
  <g transform="matrix(1 0 0 1 -43 -670 )">
    <path d="M 43 670  L 554 670  L 554 1112  L 43 1112  L 43 670  " fill-rule="nonzero" fill="#cccccc" stroke="none" />
    <path d="M 74 701  L 523 701  L 523 1081  L 74 1081  L 74 701  " fill-rule="nonzero" fill="#ffffff" stroke="none" />
    <path d="M 341.87 802.6  C 323.306 802.6  308.72 788.014  308.72 769.45  C 308.72 750.886  323.306 736.3  341.87 736.3  C 360.434 736.3  375.02 750.886  375.02 769.45  C 375.02 788.014  360.434 802.6  341.87 802.6  " fill-rule="nonzero" fill="#cccccc" stroke="none" />
    <path d="M 85 1070  L 85 873.1  L 191.75 783.6  L 341.2 884.204305283757  L 426.6 837.3  L 512 884.204305283757  L 512 1070  L 85 1070  " fill-rule="nonzero" fill="#169bd5" stroke="none" />
  </g>
</svg>