<?xml version="1.0" encoding="utf-8"?>
<svg version="1.1" xmlns:xlink="http://www.w3.org/1999/xlink" width="617px" height="430px" xmlns="http://www.w3.org/2000/svg">
  <g transform="matrix(1 0 0 1 -583 -2031 )">
    <path d="M 583 2031  L 1200 2031  L 1200 2461  L 583 2461  L 583 2031  " fill-rule="nonzero" fill="#cccccc" stroke="none" />
    <path d="M 613 2061  L 1170 2061  L 1170 2431  L 613 2431  L 613 2061  " fill-rule="nonzero" fill="#ffffff" stroke="none" />
    <path d="M 936.09 2160  C 918.03 2160  903.84 2145.81  903.84 2127.75  C 903.84 2109.69  918.03 2095.5  936.09 2095.5  C 954.15 2095.5  968.34 2109.69  968.34 2127.75  C 968.34 2145.81  954.15 2160  936.09 2160  " fill-rule="nonzero" fill="#cccccc" stroke="none" />
    <path d="M 624 2420  L 624 2228.6  L 757.75 2141.6  L 945 2274.4829821718  L 1052 2193.8  L 1159 2274.4829821718  L 1159 2420  L 624 2420  " fill-rule="nonzero" fill="#169bd5" stroke="none" />
  </g>
</svg>