<?xml version="1.0" encoding="utf-8"?>
<svg version="1.1" xmlns:xlink="http://www.w3.org/1999/xlink" width="583px" height="430px" xmlns="http://www.w3.org/2000/svg">
  <g transform="matrix(1 0 0 1 0 -2031 )">
    <path d="M 0 2031  L 583 2031  L 583 2461  L 0 2461  L 0 2031  " fill-rule="nonzero" fill="#cccccc" stroke="none" />
    <path d="M 30 2061  L 553 2061  L 553 2431  L 30 2431  L 30 2061  " fill-rule="nonzero" fill="#ffffff" stroke="none" />
    <path d="M 335.41 2160  C 317.35 2160  303.16 2145.81  303.16 2127.75  C 303.16 2109.69  317.35 2095.5  335.41 2095.5  C 353.47 2095.5  367.66 2109.69  367.66 2127.75  C 367.66 2145.81  353.47 2160  335.41 2160  " fill-rule="nonzero" fill="#cccccc" stroke="none" />
    <path d="M 41 2420  L 41 2228.6  L 166.25 2141.6  L 341.6 2265.99656946827  L 441.8 2193.8  L 542 2265.99656946827  L 542 2420  L 41 2420  " fill-rule="nonzero" fill="#169bd5" stroke="none" />
  </g>
</svg>