<?xml version="1.0" encoding="utf-8"?>
<svg version="1.1" xmlns:xlink="http://www.w3.org/1999/xlink" width="83px" height="83px" xmlns="http://www.w3.org/2000/svg">
  <g transform="matrix(1 0 0 1 -69 -389 )">
    <path d="M 110.5 389  C 133.74 389  152 407.26  152 430.5  C 152 453.74  133.74 472  110.5 472  C 87.26 472  69 453.74  69 430.5  C 69 407.26  87.26 389  110.5 389  Z " fill-rule="nonzero" fill="#ffffff" stroke="none" />
    <path d="M 110.5 389.5  C 133.46 389.5  151.5 407.54  151.5 430.5  C 151.5 453.46  133.46 471.5  110.5 471.5  C 87.54 471.5  69.5 453.46  69.5 430.5  C 69.5 407.54  87.54 389.5  110.5 389.5  Z " stroke-width="1" stroke="#797979" fill="none" />
  </g>
</svg>