<?xml version="1.0" encoding="utf-8"?>
<svg version="1.1" xmlns:xlink="http://www.w3.org/1999/xlink" width="83px" height="83px" xmlns="http://www.w3.org/2000/svg">
  <g transform="matrix(1 0 0 1 -69 -535 )">
    <path d="M 110.5 535  C 133.74 535  152 553.26  152 576.5  C 152 599.74  133.74 618  110.5 618  C 87.26 618  69 599.74  69 576.5  C 69 553.26  87.26 535  110.5 535  Z " fill-rule="nonzero" fill="#ffffff" stroke="none" />
    <path d="M 110.5 535.5  C 133.46 535.5  151.5 553.54  151.5 576.5  C 151.5 599.46  133.46 617.5  110.5 617.5  C 87.54 617.5  69.5 599.46  69.5 576.5  C 69.5 553.54  87.54 535.5  110.5 535.5  Z " stroke-width="1" stroke="#797979" fill="none" />
  </g>
</svg>