<?xml version="1.0" encoding="utf-8"?>
<svg version="1.1" xmlns:xlink="http://www.w3.org/1999/xlink" width="170px" height="170px" xmlns="http://www.w3.org/2000/svg">
  <g transform="matrix(1 0 0 1 -79 -2407 )">
    <path d="M 164 2407  C 211.6 2407  249 2444.4  249 2492  C 249 2539.6  211.6 2577  164 2577  C 116.4 2577  79 2539.6  79 2492  C 79 2444.4  116.4 2407  164 2407  Z " fill-rule="nonzero" fill="#ffffff" stroke="none" />
    <path d="M 164 2407.5  C 211.32 2407.5  248.5 2444.68  248.5 2492  C 248.5 2539.32  211.32 2576.5  164 2576.5  C 116.68 2576.5  79.5 2539.32  79.5 2492  C 79.5 2444.68  116.68 2407.5  164 2407.5  Z " stroke-width="1" stroke="#797979" fill="none" />
  </g>
</svg>