<?xml version="1.0" encoding="utf-8"?>
<svg version="1.1" xmlns:xlink="http://www.w3.org/1999/xlink" width="458px" height="366px" xmlns="http://www.w3.org/2000/svg">
  <g transform="matrix(1 0 0 1 -65 -1134 )">
    <path d="M 65 1134  L 523 1134  L 523 1500  L 65 1500  L 65 1134  " fill-rule="nonzero" fill="#cccccc" stroke="none" />
    <path d="M 91 1160  L 497 1160  L 497 1474  L 91 1474  L 91 1160  " fill-rule="nonzero" fill="#ffffff" stroke="none" />
    <path d="M 330.61 1243.8  C 315.238 1243.8  303.16 1231.722  303.16 1216.35  C 303.16 1200.978  315.238 1188.9  330.61 1188.9  C 345.982 1188.9  358.06 1200.978  358.06 1216.35  C 358.06 1231.722  345.982 1243.8  330.61 1243.8  " fill-rule="nonzero" fill="#cccccc" stroke="none" />
    <path d="M 100 1465  L 100 1302.2  L 197 1228.2  L 332.8 1323.07510917031  L 410.4 1272.6  L 488 1323.07510917031  L 488 1465  L 100 1465  " fill-rule="nonzero" fill="#169bd5" stroke="none" />
  </g>
</svg>